# xmcd CD database file generated by Grip 2.94
# 
# Track frame offsets:
#       150
#       12430
#       22945
#       34657
#       46775
#       58785
#       71660
#       81910
#       91800
#       103822
# 
# Disc length: 1546 seconds
# 
# Revision: 3
# Processed by: cddbd v1.4b41PL1 Copyright (c) Steve Scherf et al.
# Submitted via: Grip 2.94
# 
DISCID=7706080a
DTITLE=Ernest Tubb and Loretta Lynn - Best of the Rest
DYEAR=1900
DGENRE=
TTITLE0=Mr and Mrs Used To Be
TTITLE1=Who's Gonna Take The Garbage Out
TTITLE2=Our Hearts Are Holding Hands
TTITLE3=Sweet Thang
TTITLE4=Two In The Cold
TTITLE5=Just Between The Two Of Us
TTITLE6=Beautiful, Unhappy Home
TTITLE7=One To Ten
TTITLE8=We're Not Kids Anymore
TTITLE9=Are You Mine
EXTD=
EXTT0=
EXTT1=
EXTT2=
EXTT3=
EXTT4=
EXTT5=
EXTT6=
EXTT7=
EXTT8=
EXTT9=
PLAYORDER=
